<svg xmlns="http://www.w3.org/2000/svg" width="2841.897" height="2841.898" viewBox="0 0 2841.897 2841.898">
    <g id="integration" transform="translate(-8 -8)">
        <g id="Group_7" transform="translate(53.849 237.183)">
            <rect id="Rectangle_7" width="641.7" height="550.065" fill="#00bec5"/>
        </g>
        <g id="Group_8" transform="translate(145.485 2070.648)">
            <path id="Path_5" d="M673.7,368H123.635A91.952,91.952,0,0,0,32,459.7V918.066H765.4V459.7A91.952,91.952,0,0,0,673.7,368Z" transform="translate(-32 -368)" fill="#00bec5"/>
        </g>
        <g id="Group_9" data-name="Group 9" transform="translate(1979.013 53.849)">
            <path id="Path_6" data-name="Path 6" d="M1177.1,474.366H352V107.7A91.952,91.952,0,0,1,443.7,16h641.7a91.952,91.952,0,0,1,91.7,91.7Z" transform="translate(-352 -16)" fill="#00bec5"/>
        </g>
        <g id="Group_10" data-name="Group 10" transform="translate(2299.832 2208.196)">
            <rect id="Rectangle_8" data-name="Rectangle 8" width="366.668" height="458.366" fill="#00bec5"/>
        </g>
        <g id="Group_11" data-name="Group 11" transform="translate(8 8)">
            <path id="Path_7" data-name="Path 7" d="M145.485,1199.765H328.629v229.183H772.66v-91.7h-352.4V1199.765H603.409a137.927,137.927,0,0,0,137.485-137.484v-916.8A137.927,137.927,0,0,0,603.851,8H145.485A137.927,137.927,0,0,0,8,145.485v916.8a137.927,137.927,0,0,0,137.485,137.484Zm458.366-91.7H145.485a45.976,45.976,0,0,1-45.849-45.849V833.1H649.7v229.183A45.976,45.976,0,0,1,603.851,1108.067ZM99.7,741.4V283.032H649.763V741.4ZM145.548,99.7H603.914a45.976,45.976,0,0,1,45.849,45.849v45.6H99.7V145.3a45.976,45.976,0,0,1,45.786-45.6Z" transform="translate(-8 -8)" fill="#282c33"/>
            <rect id="Rectangle_9" data-name="Rectangle 9" width="183.334" height="91.699" transform="translate(275.032 916.732)" fill="#282c33"/>
            <path id="Path_8" data-name="Path 8" d="M1123.247,8H481.484A137.926,137.926,0,0,0,344,145.485V603.851A137.925,137.925,0,0,0,481.484,741.336H618.97v91.7H527.143v91.7H756.326V1383.1H548.363v91.7H848.024V924.733h229.185V833.1h-91.7V741.4h137.484a137.926,137.926,0,0,0,137.483-137.485l0-458.429A137.928,137.928,0,0,0,1123.245,8ZM481.484,99.7h641.7a45.975,45.975,0,0,1,45.849,45.849V466.429H435.7V145.485A45.971,45.971,0,0,1,481.482,99.7ZM894,833.1H710.858V741.4H894Zm229.184-183.144h-641.7A45.975,45.975,0,0,1,435.633,604.1l0-46.039h733.4v45.849a45.979,45.979,0,0,1-45.788,45.786Z" transform="translate(1581.164 -8)" fill="#282c33"/>
            <path id="Path_9" data-name="Path 9" d="M924.733,913.7A137.927,137.927,0,0,0,787.248,776.216H512.216V363.7H649.7V272H420.517V776.216H237.373A137.927,137.927,0,0,0,99.888,913.7v412.518H8V1463.7a137.926,137.926,0,0,0,137.485,137.485h733.4A137.926,137.926,0,0,0,1016.368,1463.7V1326.218H924.733Zm-733.4,0a45.976,45.976,0,0,1,45.849-45.851l550.065,0A45.972,45.972,0,0,1,833.1,913.7v412.518H191.144Zm733.4,550.065a45.975,45.975,0,0,1-45.849,45.849h-733.4a45.975,45.975,0,0,1-45.849-45.849v-45.851h825.1Z" transform="translate(-8 1240.646)" fill="#282c33"/>
            <rect id="Rectangle_10" data-name="Rectangle 10" width="91.699" height="91.699" transform="translate(2291.832 2200.196)" fill="#282c33"/>
            <rect id="Rectangle_11" data-name="Rectangle 11" width="91.699" height="91.699" transform="translate(2566.864 2566.864)" fill="#282c33"/>
            <rect id="Rectangle_12" data-name="Rectangle 12" width="183.334" height="91.699" transform="translate(2475.228 2200.196)" fill="#282c33"/>
            <rect id="Rectangle_13" data-name="Rectangle 13" width="183.334" height="91.699" transform="translate(2291.832 2566.864)" fill="#282c33"/>
            <path id="Path_10" data-name="Path 10" d="M788.517,280H467.637v91.7H696.819V738.367H376v825.1h733.4v-825.1H788.517ZM467.637,1471.766V1196.732H1017.7v275.034ZM1017.7,1105.1H467.637V830.066H1017.7Z" transform="translate(1732.497 1278.433)" fill="#282c33"/>
        </g>
        <g id="Group_12" data-name="Group 12" transform="translate(604.193 924.02)">
            <path id="Path_11" data-name="Path 11" d="M1440.913,1177.134H432.545c-163.891-.12-301.332-123.776-318.711-286.744s90.894-312.825,251.074-347.5A369.7,369.7,0,0,1,707.515,306.251a363.587,363.587,0,0,1,149.547,32.081,366.288,366.288,0,0,1,675.739,197.1,110.563,110.563,0,0,1-.566,13.769,320.566,320.566,0,0,1-91.131,628Z" transform="translate(-112.005 -167.989)" fill="#282c33"/>
        </g>
    </g>
</svg>
