<svg xmlns="http://www.w3.org/2000/svg" width="2859.414" height="2859.415" viewBox="0 0 2859.414 2859.415">
    <g id="Group_21" transform="translate(-8 -8)">
        <g id="Group_3" transform="translate(745.919 1483.459)">
            <path id="Path_2" d="M966.184,725.475a92.264,92.264,0,0,0,0-184.273,128.293,128.293,0,0,1-121.62-87.627l-5.783-16.709A252.96,252.96,0,0,0,598.97,263.9a261.579,261.579,0,0,0-93.978,17.854l-14.425,5.785A931.59,931.59,0,0,1,136,356.739,690.892,690.892,0,0,0,467.5,946.477,613.762,613.762,0,0,1,938.478,725.666Z" transform="translate(-136 -263.903)" fill="#00bec5"/>
        </g>
        <g id="Group_4" transform="translate(1022.647 884.245)">
            <path id="Path_3" d="M599.06,160.007A687.838,687.838,0,0,0,184,299.8V425.487a150.469,150.469,0,0,0,275.584,83.621l2.859-4.638a150.91,150.91,0,0,1,125.114-66.847c108.416-.14,196.425,87.615,196.6,196.029v10.929A115.647,115.647,0,0,0,899.488,759.91a115.648,115.648,0,0,1,115.331,115.33,207.4,207.4,0,0,0,207.53,207.531H1251.2A689.882,689.882,0,0,0,599.057,160.005Z" transform="translate(-184 -160)" fill="#00bec5"/>
        </g>
        <g id="Group_5" transform="translate(8 8)">
            <path id="Path_4" d="M2775.15,2406.223V884.252c.035-127.369-103.227-230.631-230.6-230.6h-230.6V330.86a138.777,138.777,0,0,0-138.332-138.586H1502.838L1358.724,48.35A138.269,138.269,0,0,0,1260.741,8H699.788A138.777,138.777,0,0,0,561.455,146.333V653.656H330.86c-127.369-.035-230.631,103.227-230.6,230.6V2406.223H8v230.6c-.035,127.369,103.227,230.631,230.6,230.6H2636.818c127.369.036,230.631-103.227,230.6-230.6v-230.6Zm-230.6-1660.3a138.777,138.777,0,0,1,138.586,138.332V2406.223h-92.454V930.384a92.518,92.518,0,0,0-92.264-92.264H2314.149v-92.2ZM1022.647,2498.487h830.12v46.132a46.259,46.259,0,0,1-46.132,46.132H1068.779a46.259,46.259,0,0,1-46.132-46.132Zm-645.719-92.264V930.384H561.2v230.6a138.777,138.777,0,0,0,138.332,138.332h54.2c-125.154,308.263-28.549,662.154,235.874,864.071s631.263,201.917,895.687,0,361.029-555.807,235.874-864.07h54.2A138.777,138.777,0,0,0,2313.7,1160.98v-230.6h184.273V2406.223ZM653.656,469.192h1568.1V1160.98a46.259,46.259,0,0,1-46.132,46.132h-99.761a736.395,736.395,0,0,0-1276.379,0H699.724a46.259,46.259,0,0,1-46.132-46.132Zm784.051,461.192c356.586,0,645.656,289.07,645.656,645.656S1794.293,2221.7,1437.707,2221.7s-645.656-289.07-645.656-645.656C792.3,1219.555,1081.223,930.629,1437.707,930.384ZM699.788,100.264h561.525a46.7,46.7,0,0,1,32.852,13.28l170.612,171.247h710.85a46.259,46.259,0,0,1,46.132,46.132v46.132H653.656V146.333A46.259,46.259,0,0,1,699.788,100.264ZM192.273,884.252A138.777,138.777,0,0,1,330.605,745.92h230.85v92.264H377.182a92.518,92.518,0,0,0-92.264,92.264V2406.223H192.273ZM2775.15,2636.819a138.777,138.777,0,0,1-138.332,138.332H238.6a138.777,138.777,0,0,1-138.332-138.332V2498.487h830.12v46.132a138.776,138.776,0,0,0,138.4,138.522h737.856a138.776,138.776,0,0,0,138.332-138.332v-46.132H2775.15Z" transform="translate(-8 -8)" fill="#282c33"/>
            <rect id="Rectangle_3" width="92.264" height="92.264" transform="translate(276.728 2582.687)" fill="#282c33"/>
            <rect id="Rectangle_4" width="92.264" height="92.264" transform="translate(461.192 2582.687)" fill="#282c33"/>
            <rect id="Rectangle_5" width="92.264" height="92.264" transform="translate(645.656 2582.687)" fill="#282c33"/>
            <rect id="Rectangle_6" width="553.456" height="92.264" transform="translate(737.919 184.464)"/>
        </g>
    </g>
</svg>
