<svg xmlns="http://www.w3.org/2000/svg" width="2809.051" height="2809.051" viewBox="0 0 2809.051 2809.051">
    <g id="report">
        <g id="Group_13" transform="translate(724.922 271.854)">
            <rect id="Rectangle_14" data-name="Rectangle 14" width="271.854" height="679.603" fill="#00bec5"/>
        </g>
        <g id="Group_14" data-name="Group 14" transform="translate(0 634.284)">
            <rect id="Rectangle_15" data-name="Rectangle 15" width="271.854" height="317.173" fill="#00bec5"/>
        </g>
        <g id="Group_15" data-name="Group 15" transform="translate(362.43 453.069)">
            <rect id="Rectangle_16" data-name="Rectangle 16" width="271.854" height="498.388" fill="#00bec5"/>
        </g>
        <g id="Group_16" data-name="Group 16" transform="translate(0 0)">
            <path id="Path_12" data-name="Path 12" d="M370.43,258.638h634.346V168H8v90.638H279.854V1345.992H597.027v-90.639H370.43Z" transform="translate(-8 738.138)" fill="#282c33"/>
            <path id="Path_13" data-name="Path 13" d="M899.831,832.008a136.33,136.33,0,0,0,135.9-135.9,140.01,140.01,0,0,0-8.489-45.881l300.755-246.386a133.642,133.642,0,0,0,70.226,19.851,135.9,135.9,0,1,0-135.9-135.9,140.012,140.012,0,0,0,8.49,45.881L970.057,580.067A134.087,134.087,0,0,0,793.336,612.9l-165.36-54.933A135.958,135.958,0,1,0,378.783,635.56l-118.6,158a133.9,133.9,0,1,0,73.035,53.809L451.818,689.37a131.092,131.092,0,0,0,146.695-45.881l165.36,54.932A136.207,136.207,0,0,0,899.831,832.007Zm498.388-589.027a35.833,35.833,0,1,1-.063-.188ZM899.831,650.731a45.293,45.293,0,1,1,0-.187ZM220.227,967.9a35.779,35.779,0,1,0-.062-.187Zm271.854-362.43a37.157,37.157,0,1,0-.064-.248Z" transform="translate(368.8 663.343)" fill="#282c33"/>
            <path id="Path_14" data-name="Path 14" d="M2230.767,1004.776H1868.275V397.085L1479.253,8H56V370.43h90.639V98.639H1415.206v362.43h362.43v906.138h-362.43A136.332,136.332,0,0,0,1279.5,1503.164v135.9h-90.826a136.333,136.333,0,0,0-135.9,135.9v45.319h90.639v-45.319a45.444,45.444,0,0,1,45.319-45.319h271.792a45.444,45.444,0,0,1,45.319,45.319v45.319h90.639v-45.319a136.333,136.333,0,0,0-135.958-135.9h-90.639v-135.9a45.444,45.444,0,0,1,45.319-45.319h362.431v317.173h90.639V1457.845H2230.7a136.333,136.333,0,0,0,135.9-135.9V1140.922A136.333,136.333,0,0,0,2230.767,1004.776ZM1505.845,370.43V162.56l207.87,207.87Zm770.242,951.457a45.444,45.444,0,0,1-45.32,45.319H1868.275V1095.352H2230.7a45.444,45.444,0,0,1,45.318,45.319Z" transform="translate(215.854 -8)" fill="#282c33"/>
        </g>
        <g id="Group_18" data-name="Group 18" transform="translate(543.707 1721.699)">
            <g id="Group_17" data-name="Group 17">
                <path id="Path_15" data-name="Path 15" d="M2233.448,1399.352H239.9a136.333,136.333,0,0,1-135.9-135.9V538.534a136.333,136.333,0,0,1,135.9-135.9H1404.278l101.938-67.979A138.16,138.16,0,0,1,1581.561,312h651.886a136.335,136.335,0,0,1,135.9,135.9v815.559A136.333,136.333,0,0,1,2233.448,1399.352Z" transform="translate(-104 -312)" fill="#282c33"/>
            </g>
        </g>
        <g id="Group_19" data-name="Group 19" transform="translate(724.922 1993.49)">
            <path id="Path_16" data-name="Path 16" d="M136,994.285H1313.992V360H136Zm90.639-181.028H407.666V903.9H226.639ZM951.561,722.62H770.534V631.981H951.561Zm90.639-90.639h181.028V722.62H1042.2ZM951.561,813.007v90.639H498.493V813.007ZM770.534,541.153V450.514H951.561v90.514Zm-90.639,0H498.868V450.514H679.9Zm0,90.639v90.639H498.868V631.792ZM408.043,722.432H227.015V631.792H408.043Zm634.283,181.025V812.82h181.028v90.637Zm181.028-362.429H1042.325V450.389h181.028ZM407.792,450.389v90.639H226.764V450.389Z" transform="translate(-136 -360)" fill="#00bec5"/>
            <path id="Path_17" data-name="Path 17" d="M360,360V994.285H994.285V360ZM903.708,541.028H813.068V450.389h90.639ZM631.854,722.056V631.417H722.49v90.639Zm90.637,90.637v90.639H631.854V812.693ZM541.465,722.056H450.825V631.417h90.2ZM632.1,541.028V450.389h90.639v90.639Zm181.028,90.639h90.639V722.3H813.129ZM541.276,450.639v90.389H450.637V450.389ZM450.637,813.068h90.391v90.639H450.389Zm362.432,90.639V813.068h90.637v90.639Z" transform="translate(908.63 -360)" fill="#00bec5"/>
        </g>
    </g>
    <g id="report-2" data-name="report">
        <g id="Group_13-2" data-name="Group 13" transform="translate(724.922 271.854)">
            <rect id="Rectangle_14-2" data-name="Rectangle 14" width="271.854" height="679.603" fill="#00bec5"/>
        </g>
        <g id="Group_14-2" data-name="Group 14" transform="translate(0 634.284)">
            <rect id="Rectangle_15-2" data-name="Rectangle 15" width="271.854" height="317.173" fill="#00bec5"/>
        </g>
        <g id="Group_15-2" data-name="Group 15" transform="translate(362.43 453.069)">
            <rect id="Rectangle_16-2" data-name="Rectangle 16" width="271.854" height="498.388" fill="#00bec5"/>
        </g>
        <g id="Group_16-2" data-name="Group 16" transform="translate(0 0)">
            <path id="Path_12-2" data-name="Path 12" d="M370.43,258.638h634.346V168H8v90.638H279.854V1345.992H597.027v-90.639H370.43Z" transform="translate(-8 738.138)" fill="#282c33"/>
            <path id="Path_13-2" data-name="Path 13" d="M899.831,832.008a136.33,136.33,0,0,0,135.9-135.9,140.01,140.01,0,0,0-8.489-45.881l300.755-246.386a133.642,133.642,0,0,0,70.226,19.851,135.9,135.9,0,1,0-135.9-135.9,140.012,140.012,0,0,0,8.49,45.881L970.057,580.067A134.087,134.087,0,0,0,793.336,612.9l-165.36-54.933A135.958,135.958,0,1,0,378.783,635.56l-118.6,158a133.9,133.9,0,1,0,73.035,53.809L451.818,689.37a131.092,131.092,0,0,0,146.695-45.881l165.36,54.932A136.207,136.207,0,0,0,899.831,832.007Zm498.388-589.027a35.833,35.833,0,1,1-.063-.188ZM899.831,650.731a45.293,45.293,0,1,1,0-.187ZM220.227,967.9a35.779,35.779,0,1,0-.062-.187Zm271.854-362.43a37.157,37.157,0,1,0-.064-.248Z" transform="translate(368.8 663.343)" fill="#282c33"/>
            <path id="Path_14-2" data-name="Path 14" d="M2230.767,1004.776H1868.275V397.085L1479.253,8H56V370.43h90.639V98.639H1415.206v362.43h362.43v906.138h-362.43A136.332,136.332,0,0,0,1279.5,1503.164v135.9h-90.826a136.333,136.333,0,0,0-135.9,135.9v45.319h90.639v-45.319a45.444,45.444,0,0,1,45.319-45.319h271.792a45.444,45.444,0,0,1,45.319,45.319v45.319h90.639v-45.319a136.333,136.333,0,0,0-135.958-135.9h-90.639v-135.9a45.444,45.444,0,0,1,45.319-45.319h362.431v317.173h90.639V1457.845H2230.7a136.333,136.333,0,0,0,135.9-135.9V1140.922A136.333,136.333,0,0,0,2230.767,1004.776ZM1505.845,370.43V162.56l207.87,207.87Zm770.242,951.457a45.444,45.444,0,0,1-45.32,45.319H1868.275V1095.352H2230.7a45.444,45.444,0,0,1,45.318,45.319Z" transform="translate(215.854 -8)" fill="#282c33"/>
        </g>
        <g id="Group_18-2" data-name="Group 18" transform="translate(543.707 1721.699)">
            <g id="Group_17-2" data-name="Group 17">
                <path id="Path_15-2" data-name="Path 15" d="M2233.448,1399.352H239.9a136.333,136.333,0,0,1-135.9-135.9V538.534a136.333,136.333,0,0,1,135.9-135.9H1404.278l101.938-67.979A138.16,138.16,0,0,1,1581.561,312h651.886a136.335,136.335,0,0,1,135.9,135.9v815.559A136.333,136.333,0,0,1,2233.448,1399.352Z" transform="translate(-104 -312)" fill="#282c33"/>
            </g>
        </g>
        <g id="Group_19-2" data-name="Group 19" transform="translate(724.922 1993.49)">
            <path id="Path_16-2" data-name="Path 16" d="M136,994.285H1313.992V360H136Zm90.639-181.028H407.666V903.9H226.639ZM951.561,722.62H770.534V631.981H951.561Zm90.639-90.639h181.028V722.62H1042.2ZM951.561,813.007v90.639H498.493V813.007ZM770.534,541.153V450.514H951.561v90.514Zm-90.639,0H498.868V450.514H679.9Zm0,90.639v90.639H498.868V631.792ZM408.043,722.432H227.015V631.792H408.043Zm634.283,181.025V812.82h181.028v90.637Zm181.028-362.429H1042.325V450.389h181.028ZM407.792,450.389v90.639H226.764V450.389Z" transform="translate(-136 -360)" fill="#00bec5"/>
            <path id="Path_17-2" data-name="Path 17" d="M360,360V994.285H994.285V360ZM903.708,541.028H813.068V450.389h90.639ZM631.854,722.056V631.417H722.49v90.639Zm90.637,90.637v90.639H631.854V812.693ZM541.465,722.056H450.825V631.417h90.2ZM632.1,541.028V450.389h90.639v90.639Zm181.028,90.639h90.639V722.3H813.129ZM541.276,450.639v90.389H450.637V450.389ZM450.637,813.068h90.391v90.639H450.389Zm362.432,90.639V813.068h90.637v90.639Z" transform="translate(908.63 -360)" fill="#00bec5"/>
        </g>
    </g>
</svg>
